{"title":"Taxi Driver (1976) DVDrip","uid":6978652,"size":485836222,"categoryP":"video","categoryS":"movies","magnet":"?xt=urn:btih:92c9efcebcbff4e8a01f16d7dd187b058f5cd4d5&amp;dn=Taxi+Driver+%281976%29+DVDrip&amp;tr=udp%3A%2F%2Ftracker.openbittorrent.com%3A80&amp;tr=udp%3A%2F%2Fopen.demonii.com%3A1337&amp;tr=udp%3A%2F%2Ftracker.coppersurfer.tk%3A6969&amp;tr=udp%3A%2F%2Fexodus.desync.com%3A6969","seeders":1,"leechers":0,"uploader":"xiliaeuro","files":2,"time":1327327341,"description":"Taxi Driver (1976)\n\n113 min  -  Drama | Thriller\n\nA mentally unstable Vietnam war veteran works as a nighttime taxi driver in New York City where the perceived decadence and sleaze feeds his urge to violently lash out, attempting to save a teenage prostitute in the process. \n\nIMDB RATING: 8.5/10\n\n\nFormat                         : AVI\nFormat/Info                    : Audio Video Interleave\nFile size                      : 463 MiB\nDuration                       : 1h 49mn\nOverall bit rate               : 593 Kbps\nWriting library                : VirtualDub build 10740/release\n\nVideo\nID                             : 0\nFormat                         : MPEG-4 Visual\nCodec ID                       : DIV3\nCodec ID/Hint                  : DivX 3 Low\nDuration                       : 1h 49mn\nBit rate                       : 468 Kbps\nWidth                          : 624 pixels\nHeight                         : 336 pixels\nDisplay aspect ratio           : 1.857\nFrame rate                     : 25.000 fps\nColor space                    : YUV\nChroma subsampling             : 4:2:0\nBit depth                      : 8 bits\nCompression mode               : Lossy\nBits/(Pixel*Frame)             : 0.089\nStream size                    : 366 MiB (79%)\n\nAudio\nID                             : 1\nFormat                         : MPEG Audio\nFormat version                 : Version 1\nFormat profile                 : Layer 3\nMode                           : Joint stereo\nCodec ID                       : 55\nCodec ID/Hint                  : MP3\nDuration                       : 1h 49mn\nBit rate mode                  : Constant\nBit rate                       : 112 Kbps\nChannel(s)                     : 2 channels\nSampling rate                  : 48.0 KHz\nCompression mode               : Lossy\nStream size                    : 87.5 MiB (19%)\nAlignment                      : Split accross interleaves\nInterleave, duration           : 24 ms (0.60 video frame)\nInterleave, preload duration   : 6551016 ms\n\n","torrent":{"xt":"urn:btih:92c9efcebcbff4e8a01f16d7dd187b058f5cd4d5","amp;dn":"Taxi+Driver+%281976%29+DVDrip","amp;tr":["udp%3A%2F%2Ftracker.openbittorrent.com%3A80","udp%3A%2F%2Fopen.demonii.com%3A1337","udp%3A%2F%2Ftracker.coppersurfer.tk%3A6969","udp%3A%2F%2Fexodus.desync.com%3A6969"],"infoHash":"92c9efcebcbff4e8a01f16d7dd187b058f5cd4d5","infoHashBuffer":{"type":"Buffer","data":[146,201,239,206,188,191,244,232,160,31,22,215,221,24,123,5,143,92,212,213]},"announce":[],"urlList":[]}}